<svg width="20" height="20" viewBox="0 0 20 20" fill="none" xmlns="http://www.w3.org/2000/svg">
<g id="Cat 1">
<path id="Vector" d="M16.25 9.375C16.2494 8.70413 16.069 8.04568 15.7274 7.46825C15.3859 6.89082 14.8958 6.41552 14.3081 6.09187C14.751 5.6299 14.9988 5.01499 15 4.375H13.75C13.7497 4.70642 13.6179 5.02417 13.3835 5.25852C13.1492 5.49287 12.8314 5.62467 12.5 5.625C11.5178 5.6263 10.5752 6.01268 9.87464 6.70119C9.1741 7.38969 8.77145 8.32543 8.75313 9.3075C7.9518 8.49132 7.50198 7.39379 7.5 6.25C7.49836 5.69726 7.31339 5.16067 6.97408 4.72433C6.63478 4.28798 6.1603 3.97652 5.625 3.83875V2.5H4.375V3.83875C3.8397 3.97652 3.36522 4.28798 3.02592 4.72433C2.68661 5.16067 2.50164 5.69726 2.5 6.25V9.375H1.25V10C1.25 12.3206 2.17187 14.5462 3.81282 16.1872C5.45376 17.8281 7.67936 18.75 10 18.75C12.3206 18.75 14.5462 17.8281 16.1872 16.1872C17.8281 14.5462 18.75 12.3206 18.75 10V9.375H16.25ZM12.5 6.875C13.1628 6.87583 13.7982 7.13948 14.2669 7.60815C14.7355 8.07681 14.9992 8.71221 15 9.375H10C10.0008 8.71221 10.2645 8.07681 10.7331 7.60815C11.2018 7.13948 11.8372 6.87583 12.5 6.875ZM3.75 6.25C3.75 5.91848 3.8817 5.60054 4.11612 5.36612C4.35054 5.1317 4.66848 5 5 5C5.33152 5 5.64946 5.1317 5.88388 5.36612C6.1183 5.60054 6.25 5.91848 6.25 6.25C6.25249 7.36353 6.58576 8.45121 7.2075 9.375H3.75V6.25ZM10 17.5C8.1197 17.4977 6.30866 16.7901 4.92476 15.5172C3.54085 14.2443 2.68475 12.4986 2.52562 10.625H17.475C17.3159 12.4987 16.4597 14.2445 15.0756 15.5174C13.6916 16.7904 11.8804 17.4978 10 17.5Z" fill="white"/>
</g>
</svg>
