<svg width="20" height="20" viewBox="0 0 20 20" fill="none" xmlns="http://www.w3.org/2000/svg">
<g id="Cat 2" clip-path="url(#clip0_116_3922)">
<path id="Vector" d="M10 2.50001C7.98313 2.50001 6.23313 3.91126 5.76188 5.84001C4.97753 6.14641 4.34574 6.74989 4.00375 7.51938C1.81875 7.35751 0 9.09688 0 11.25C0 13.3181 1.68188 15 3.75 15H5.625V13.75H3.75C2.37063 13.75 1.25 12.6294 1.25 11.25C1.25008 10.8752 1.33437 10.5052 1.49664 10.1674C1.65891 9.82952 1.89501 9.53244 2.1875 9.29809C2.47999 9.06373 2.8214 8.89809 3.18651 8.81339C3.55161 8.7287 3.93108 8.72711 4.29688 8.80876L4.92188 8.94563L5.03938 8.33938C5.1925 7.64938 5.75438 7.10001 6.44563 6.93313L6.85563 6.83626L6.91438 6.42563C7.13875 4.90438 8.46438 3.75001 10 3.75001C10.5793 3.74878 11.1474 3.90893 11.6408 4.21251C12.1341 4.51609 12.5332 4.9511 12.7931 5.46876L13.0275 5.95688L13.5544 5.78126C13.8469 5.67876 14.1138 5.62501 14.375 5.62501C15.7544 5.62501 16.875 6.74563 16.875 8.12501C16.875 8.14938 16.8775 8.18126 16.875 8.20313C16.87 8.24438 16.8606 8.27626 16.8556 8.32063L16.8163 8.76938L17.2269 8.94501C17.758 9.17037 18.1949 9.57236 18.4636 10.0829C18.7323 10.5935 18.8163 11.1812 18.7014 11.7466C18.5864 12.312 18.2796 12.8202 17.8329 13.1853C17.3861 13.5504 16.8269 13.7499 16.25 13.75H15V15H16.25C18.3181 15 20 13.3181 20 11.25C20.0006 10.5923 19.8275 9.94614 19.4983 9.37678C19.169 8.80743 18.6953 8.33509 18.125 8.00751C18.0594 5.99688 16.4013 4.37501 14.375 4.37501C14.1254 4.3745 13.8765 4.40069 13.6325 4.45313C13.2367 3.85167 12.6974 3.35819 12.0632 3.01721C11.4291 2.67624 10.72 2.49849 10 2.50001ZM13.125 8.12501C12.7269 8.12501 12.405 8.44688 12.405 8.84501C12.405 8.87188 12.4175 8.89501 12.4194 8.92063C12.2832 8.80708 12.1096 8.74833 11.9325 8.75585C11.7553 8.76336 11.5873 8.83659 11.4613 8.96126C11.3366 9.08733 11.2633 9.25533 11.2558 9.43247C11.2483 9.60962 11.3071 9.78321 11.4206 9.91938C11.3944 9.91626 11.3719 9.90501 11.3456 9.90501C11.2511 9.90501 11.1574 9.92363 11.0701 9.95982C10.9827 9.996 10.9034 10.049 10.8365 10.1159C10.7697 10.1828 10.7166 10.2621 10.6804 10.3495C10.6442 10.4368 10.6256 10.5305 10.6256 10.625C10.6256 10.7196 10.6442 10.8132 10.6804 10.9005C10.7166 10.9879 10.7697 11.0673 10.8365 11.1341C10.9034 11.201 10.9827 11.254 11.0701 11.2902C11.1574 11.3264 11.2511 11.345 11.3456 11.345C11.3719 11.345 11.3944 11.3325 11.4206 11.3306C11.3071 11.4668 11.2483 11.6404 11.2558 11.8175C11.2633 11.9947 11.3366 12.1627 11.4613 12.2888C11.5873 12.4136 11.7553 12.4869 11.9325 12.4944C12.1096 12.5019 12.2833 12.4431 12.4194 12.3294C12.4163 12.3556 12.405 12.3781 12.405 12.4044C12.405 12.4989 12.4236 12.5926 12.4598 12.6799C12.496 12.7673 12.549 12.8466 12.6159 12.9135C12.6827 12.9804 12.7621 13.0334 12.8495 13.0696C12.9368 13.1058 13.0304 13.1244 13.125 13.1244C13.2196 13.1244 13.3132 13.1058 13.4005 13.0696C13.4879 13.0334 13.5673 12.9804 13.6341 12.9135C13.701 12.8466 13.754 12.7673 13.7902 12.6799C13.8264 12.5926 13.845 12.4989 13.845 12.4044C13.845 12.3781 13.8325 12.3556 13.8306 12.3294C13.9668 12.4429 14.1404 12.5017 14.3175 12.4942C14.4947 12.4867 14.6627 12.4134 14.7888 12.2888C14.9136 12.1628 14.9869 11.9947 14.9944 11.8176C15.0019 11.6404 14.9431 11.4667 14.8294 11.3306C14.8556 11.3338 14.8781 11.345 14.9044 11.345C15.0953 11.345 15.2785 11.2692 15.4135 11.1341C15.5485 10.9991 15.6244 10.816 15.6244 10.625C15.6244 10.4341 15.5485 10.2509 15.4135 10.1159C15.2785 9.98087 15.0953 9.90501 14.9044 9.90501C14.8781 9.90501 14.8556 9.91751 14.8294 9.91938C14.9429 9.78321 15.0017 9.60962 14.9942 9.43247C14.9867 9.25533 14.9134 9.08733 14.7888 8.96126C14.6627 8.83659 14.4947 8.76336 14.3175 8.75585C14.1404 8.74833 13.9668 8.80708 13.8306 8.92063C13.8338 8.89438 13.845 8.87188 13.845 8.84563C13.8451 8.75103 13.8265 8.65734 13.7904 8.56991C13.7542 8.48248 13.7012 8.40304 13.6343 8.33611C13.5675 8.26919 13.4881 8.2161 13.4007 8.17988C13.3133 8.14365 13.2196 8.12501 13.125 8.12501ZM7.5 9.37501C7.33424 9.37501 7.17527 9.44086 7.05806 9.55807C6.94085 9.67528 6.875 9.83425 6.875 10C6.70924 10 6.55027 10.0659 6.43306 10.1831C6.31585 10.3003 6.25 10.4592 6.25 10.625C6.25 10.7908 6.31585 10.9497 6.43306 11.067C6.55027 11.1842 6.70924 11.25 6.875 11.25C6.875 11.4158 6.94085 11.5747 7.05806 11.692C7.17527 11.8092 7.33424 11.875 7.5 11.875C7.66576 11.875 7.82473 11.8092 7.94194 11.692C8.05915 11.5747 8.125 11.4158 8.125 11.25C8.29076 11.25 8.44973 11.1842 8.56694 11.067C8.68415 10.9497 8.75 10.7908 8.75 10.625C8.75 10.4592 8.68415 10.3003 8.56694 10.1831C8.44973 10.0659 8.29076 10 8.125 10C8.125 9.83425 8.05915 9.67528 7.94194 9.55807C7.82473 9.44086 7.66576 9.37501 7.5 9.37501ZM9.375 13.125C8.97688 13.125 8.655 13.4469 8.655 13.845C8.655 13.8719 8.6675 13.895 8.66938 13.9206C8.5332 13.8071 8.35961 13.7483 8.18246 13.7558C8.00532 13.7634 7.83732 13.8366 7.71125 13.9613C7.58658 14.0873 7.51335 14.2553 7.50584 14.4325C7.49833 14.6096 7.55708 14.7832 7.67063 14.9194C7.64438 14.9163 7.62188 14.905 7.59563 14.905C7.50107 14.905 7.40745 14.9236 7.32009 14.9598C7.23274 14.996 7.15337 15.049 7.08651 15.1159C7.01965 15.1827 6.96662 15.2621 6.93043 15.3495C6.89425 15.4368 6.87563 15.5305 6.87563 15.625C6.87563 15.7196 6.89425 15.8132 6.93043 15.9005C6.96662 15.9879 7.01965 16.0673 7.08651 16.1341C7.15337 16.201 7.23274 16.254 7.32009 16.2902C7.40745 16.3264 7.50107 16.345 7.59563 16.345C7.62188 16.345 7.64438 16.3325 7.67063 16.3306C7.55708 16.4668 7.49833 16.6404 7.50584 16.8175C7.51335 16.9947 7.58658 17.1627 7.71125 17.2888C7.83725 17.4136 8.00527 17.4869 8.18246 17.4944C8.35964 17.5019 8.53326 17.4431 8.66938 17.3294C8.66625 17.3556 8.655 17.3781 8.655 17.4044C8.655 17.5953 8.73086 17.7785 8.86588 17.9135C9.00091 18.0485 9.18404 18.1244 9.375 18.1244C9.56596 18.1244 9.74909 18.0485 9.88412 17.9135C10.0191 17.7785 10.095 17.5953 10.095 17.4044C10.095 17.3781 10.0825 17.3556 10.0806 17.3294C10.2168 17.4429 10.3904 17.5017 10.5675 17.4942C10.7447 17.4867 10.9127 17.4134 11.0388 17.2888C11.1635 17.1628 11.2369 16.9947 11.2444 16.8176C11.2519 16.6404 11.1931 16.4667 11.0794 16.3306C11.1056 16.3338 11.1281 16.345 11.1544 16.345C11.2489 16.345 11.3426 16.3264 11.4299 16.2902C11.5173 16.254 11.5966 16.201 11.6635 16.1341C11.7304 16.0673 11.7834 15.9879 11.8196 15.9005C11.8558 15.8132 11.8744 15.7196 11.8744 15.625C11.8744 15.5305 11.8558 15.4368 11.8196 15.3495C11.7834 15.2621 11.7304 15.1827 11.6635 15.1159C11.5966 15.049 11.5173 14.996 11.4299 14.9598C11.3426 14.9236 11.2489 14.905 11.1544 14.905C11.1281 14.905 11.1056 14.9175 11.0794 14.9194C11.1929 14.7832 11.2517 14.6096 11.2442 14.4325C11.2367 14.2553 11.1634 14.0873 11.0388 13.9613C10.9127 13.8366 10.7447 13.7634 10.5675 13.7558C10.3904 13.7483 10.2168 13.8071 10.0806 13.9206C10.0838 13.8944 10.095 13.8719 10.095 13.8456C10.0951 13.751 10.0765 13.6573 10.0404 13.5699C10.0042 13.4825 9.95121 13.403 9.88434 13.3361C9.81747 13.2692 9.73807 13.2161 9.65068 13.1799C9.56328 13.1437 9.46961 13.125 9.375 13.125Z" fill="white"/>
</g>
<defs>
<clipPath id="clip0_116_3922">
<rect width="20" height="20" fill="white"/>
</clipPath>
</defs>
</svg>
