<svg width="20" height="20" viewBox="0 0 20 20" fill="none" xmlns="http://www.w3.org/2000/svg">
<g id="Cat 3">
<path id="Vector" d="M8.12491 2.5V1.875C8.12491 1.37772 8.32245 0.900805 8.67408 0.549175C9.02571 0.197544 9.50263 0 9.99991 0L12.4999 0C12.6657 0 12.8246 0.065848 12.9419 0.183058C13.0591 0.300269 13.1249 0.45924 13.1249 0.625C13.1249 0.79076 13.0591 0.949732 12.9419 1.06694C12.8246 1.18415 12.6657 1.25 12.4999 1.25H9.99991C9.83415 1.25 9.67518 1.31585 9.55797 1.43306C9.44076 1.55027 9.37491 1.70924 9.37491 1.875V2.5H15.6249C16.1027 2.49946 16.5627 2.68136 16.9109 3.00854C17.2591 3.33572 17.4693 3.7835 17.4985 4.26042C17.5277 4.73733 17.3737 5.20741 17.068 5.57462C16.7623 5.94184 16.328 6.17849 15.8537 6.23625L15.0787 17.585C15.0571 17.9009 14.9165 18.1969 14.6852 18.4131C14.4538 18.6294 14.1491 18.7498 13.8324 18.75H6.16741C5.85053 18.7501 5.54545 18.6299 5.31386 18.4136C5.08226 18.1973 4.94146 17.9011 4.91991 17.585L4.14616 6.23625C3.67185 6.17849 3.23749 5.94184 2.93179 5.57462C2.62609 5.20741 2.47211 4.73733 2.50131 4.26042C2.53051 3.7835 2.74068 3.33572 3.0889 3.00854C3.43711 2.68136 3.8971 2.49946 4.37491 2.5H8.12491ZM5.39991 6.25L6.16741 17.5H13.8324L13.9262 16.1175C12.9335 15.8652 12.0607 15.2728 11.4599 14.4433C10.859 13.6139 10.5681 12.5999 10.6379 11.5781C10.7076 10.5562 11.1336 9.59121 11.8415 8.85107C12.5495 8.11092 13.4947 7.64255 14.5124 7.5275L14.5999 6.25H5.39991ZM4.37491 5H15.6249C15.7907 5 15.9496 4.93415 16.0669 4.81694C16.1841 4.69973 16.2499 4.54076 16.2499 4.375C16.2499 4.20924 16.1841 4.05027 16.0669 3.93306C15.9496 3.81585 15.7907 3.75 15.6249 3.75H4.37491C4.20915 3.75 4.05018 3.81585 3.93297 3.93306C3.81576 4.05027 3.74991 4.20924 3.74991 4.375C3.74991 4.54076 3.81576 4.69973 3.93297 4.81694C4.05018 4.93415 4.20915 5 4.37491 5ZM14.0124 14.8413L14.4249 8.80375C13.7438 8.93081 13.1243 9.28059 12.6637 9.79811C12.2031 10.3156 11.9275 10.9715 11.8803 11.6627C11.8331 12.3539 12.0169 13.0412 12.4028 13.6166C12.7888 14.1919 13.355 14.6227 14.0124 14.8413Z" fill="white"/>
</g>
</svg>
