<svg width="20" height="20" viewBox="0 0 20 20" fill="none" xmlns="http://www.w3.org/2000/svg">
<g id="Cat 4 ">
<path id="Vector" d="M3.86125 5.07126C4.137 3.64543 4.90049 2.36005 6.02064 1.43578C7.14079 0.511507 8.54775 0.00598145 10 0.00598145C11.4522 0.00598145 12.8592 0.511507 13.9794 1.43578C15.0995 2.36005 15.863 3.64543 16.1388 5.07126C16.5309 5.18299 16.876 5.41953 17.1216 5.74502C17.3673 6.07052 17.5001 6.46722 17.5 6.87501V8.12501C17.5001 8.5394 17.3628 8.94214 17.1098 9.27028C16.8567 9.59843 16.5021 9.8335 16.1012 9.93876L15.1363 17.655C15.0985 17.9573 14.9516 18.2353 14.7233 18.437C14.495 18.6386 14.2009 18.7499 13.8962 18.75H6.10375C5.79913 18.7499 5.50503 18.6386 5.2767 18.437C5.04837 18.2353 4.90152 17.9573 4.86375 17.655L3.89875 9.93876C3.49795 9.8335 3.1433 9.59843 2.89024 9.27028C2.63717 8.94214 2.49995 8.5394 2.5 8.12501V6.87501C2.49989 6.46722 2.63272 6.07052 2.87837 5.74502C3.12401 5.41953 3.46907 5.18299 3.86125 5.07126ZM5.1575 5.00001H14.8425C14.5645 3.92721 13.938 2.9771 13.0616 2.29885C12.1851 1.62059 11.1082 1.25258 10 1.25258C8.89175 1.25258 7.81488 1.62059 6.93842 2.29885C6.06196 2.9771 5.43555 3.92721 5.1575 5.00001ZM14.8337 10H5.16625L6.10375 17.5H13.8962L14.8337 10ZM4.375 8.75001H15.625C15.7908 8.75001 15.9497 8.68416 16.0669 8.56695C16.1842 8.44974 16.25 8.29077 16.25 8.12501V6.87501C16.25 6.70925 16.1842 6.55027 16.0669 6.43306C15.9497 6.31585 15.7908 6.25001 15.625 6.25001H4.375C4.20924 6.25001 4.05027 6.31585 3.93306 6.43306C3.81585 6.55027 3.75 6.70925 3.75 6.87501V8.12501C3.75 8.29077 3.81585 8.44974 3.93306 8.56695C4.05027 8.68416 4.20924 8.75001 4.375 8.75001ZM7.5 12.5H8.75V13.75H7.5V12.5ZM11.25 13.75H12.5V15H11.25V13.75ZM8.75 15H10V16.25H8.75V15ZM10 11.25H11.25V12.5H10V11.25Z" fill="white"/>
</g>
</svg>
