<svg width="20" height="20" viewBox="0 0 20 20" fill="none" xmlns="http://www.w3.org/2000/svg">
<g id="Cat 5 ">
<g id="Group">
<path id="Vector" d="M3.75 10.8333C3.75 10.8333 7.08333 5.83333 9.16667 3.33334C10.4708 1.76792 12.9167 1.14584 15 2.08334C17.0833 3.02084 17.9167 5 17.0833 6.66667C16.25 8.33333 12.9167 14.5833 12.9167 14.5833" stroke="white" stroke-width="1.5" stroke-linecap="round" stroke-linejoin="round"/>
<path id="Vector_2" d="M12.9167 13.8283C12.9167 15.1417 12.185 16.3158 11.0358 17.0942C10.1333 17.7058 8.97333 17.4446 7.70833 17.4446C6.37458 17.4446 5.1575 17.6646 4.23625 16.9925C3.17042 16.2154 2.5 15.0858 2.5 13.8283C2.5 11.1717 4.83167 9.58334 7.70833 9.58334C10.585 9.58334 12.9167 11.4838 12.9167 13.8283Z" stroke="white" stroke-width="1.5" stroke-linecap="round" stroke-linejoin="round"/>
<path id="Vector_3" d="M8.33325 4.58332C8.33325 4.58332 9.79159 3.95832 11.2499 4.58332M9.58325 13.8404C9.58325 14.2554 9.31992 14.6258 8.90617 14.8721C8.58117 15.065 8.16367 14.9825 7.70825 14.9825C7.22825 14.9825 6.78992 15.0521 6.45825 14.8396C6.07492 14.5942 5.83325 14.2375 5.83325 13.8404C5.83325 13.0017 6.67284 12.5 7.70825 12.5C8.74367 12.5 9.58325 13.1 9.58325 13.8404ZM6.24992 7.49999C6.24992 7.49999 7.70825 7.08332 9.58325 7.49999H6.24992Z" stroke="white" stroke-width="1.5" stroke-linecap="round" stroke-linejoin="round"/>
</g>
</g>
</svg>
