<svg width="20" height="20" viewBox="0 0 20 20" fill="none" xmlns="http://www.w3.org/2000/svg">
<g id="Cat 6">
<path id="Vector" d="M14.6875 0.625H5.3125C4.81539 0.625558 4.3388 0.823282 3.98729 1.17479C3.63578 1.5263 3.43806 2.00289 3.4375 2.5V18.125C3.43787 18.4564 3.56969 18.7741 3.80403 19.0085C4.03837 19.2428 4.35609 19.3746 4.6875 19.375H15.3125C15.6439 19.3746 15.9616 19.2428 16.196 19.0085C16.4303 18.7741 16.5621 18.4564 16.5625 18.125V2.5C16.5619 2.00289 16.3642 1.5263 16.0127 1.17479C15.6612 0.823282 15.1846 0.625558 14.6875 0.625ZM15.3125 18.125H4.6875V9.375H15.3125V18.125ZM15.3125 8.125H4.6875V2.5C4.6877 2.3343 4.75361 2.17544 4.87078 2.05828C4.98794 1.94111 5.1468 1.8752 5.3125 1.875H14.6875C14.8532 1.8752 15.0121 1.94111 15.1292 2.05828C15.2464 2.17544 15.3123 2.3343 15.3125 2.5V8.125Z" fill="white"/>
<path id="Vector_2" d="M5.625 10.9375H6.875V14.6875H5.625V10.9375ZM5.625 4.0625H6.875V6.5625H5.625V4.0625Z" fill="white"/>
</g>
</svg>
