<svg width="20" height="20" viewBox="0 0 20 20" fill="none" xmlns="http://www.w3.org/2000/svg">
<g id="Cat 8">
<path id="Vector" d="M15.8333 6.25001C15.8337 6.67263 15.7757 7.09328 15.6608 7.50001H17.0108C17.7417 7.50001 18.3333 8.09167 18.3333 8.82167V12.9167C18.3333 13.9347 18.0465 14.9321 17.5056 15.7945C16.9647 16.657 16.1918 17.3496 15.2754 17.7929C14.3589 18.2362 13.3361 18.4122 12.3242 18.3009C11.3123 18.1895 10.3523 17.7953 9.55417 17.1633L8.56667 18.15C8.50945 18.2114 8.44045 18.2607 8.36378 18.2948C8.28712 18.329 8.20435 18.3474 8.12044 18.3488C8.03652 18.3503 7.95316 18.3349 7.87534 18.3034C7.79751 18.272 7.72682 18.2252 7.66747 18.1659C7.60812 18.1065 7.56133 18.0358 7.5299 17.958C7.49846 17.8802 7.48303 17.7968 7.48451 17.7129C7.48599 17.629 7.50436 17.5462 7.53852 17.4696C7.57268 17.3929 7.62193 17.3239 7.68333 17.2667L8.67 16.2792C8.33846 15.8612 8.07057 15.3964 7.875 14.9C7.14846 15.0483 6.39804 15.0332 5.67808 14.8557C4.95812 14.6781 4.28666 14.3427 3.71233 13.8737C3.138 13.4047 2.67518 12.8137 2.35741 12.1438C2.03963 11.4738 1.87485 10.7415 1.875 10V6.26167C1.875 5.56501 2.44 5.00001 3.13667 5.00001H6.83917C7.11155 4.04013 7.68962 3.1953 8.48565 2.59373C9.28168 1.99216 10.2522 1.66667 11.25 1.66667H14.6333C15.2958 1.66667 15.8333 2.20417 15.8333 2.86667V6.25001ZM8.10167 5.15167C8.79336 5.32726 9.43956 5.64856 9.99703 6.09408C10.5545 6.5396 11.0104 7.09906 11.3342 7.735C11.8471 7.57876 12.3804 7.49956 12.9167 7.50001H14.3417C14.5018 7.10274 14.5838 6.67833 14.5833 6.25001V2.91667H11.25C10.5582 2.91668 9.88359 3.1318 9.31951 3.53224C8.75543 3.93268 8.32984 4.49862 8.10167 5.15167ZM10.4458 16.2717C11.0664 16.7287 11.8016 17.0047 12.5696 17.0689C13.3377 17.133 14.1084 16.983 14.7963 16.6353C15.4841 16.2876 16.0621 15.756 16.4658 15.0995C16.8696 14.443 17.0833 13.6874 17.0833 12.9167V8.82167C17.0833 8.81226 17.0815 8.80294 17.0779 8.79425C17.0743 8.78555 17.069 8.77765 17.0623 8.771C17.0557 8.76434 17.0478 8.75906 17.0391 8.75546C17.0304 8.75186 17.0211 8.75001 17.0117 8.75001H12.9167C12.146 8.75001 11.3903 8.96377 10.7339 9.36753C10.0774 9.77129 9.54573 10.3492 9.19806 11.0371C8.85038 11.7249 8.7003 12.4957 8.76449 13.2637C8.82868 14.0317 9.10463 14.7669 9.56167 15.3875L13.1 11.85C13.1572 11.7886 13.2262 11.7393 13.3029 11.7052C13.3796 11.671 13.4623 11.6527 13.5462 11.6512C13.6302 11.6497 13.7135 11.6651 13.7913 11.6966C13.8692 11.728 13.9398 11.7748 13.9992 11.8341C14.0585 11.8935 14.1053 11.9642 14.1368 12.042C14.1682 12.1198 14.1836 12.2032 14.1822 12.2871C14.1807 12.371 14.1623 12.4538 14.1282 12.5305C14.094 12.6071 14.0447 12.6761 13.9833 12.7333L10.4458 16.2717ZM7.5 12.9167C7.5 12.4233 7.56667 11.945 7.69 11.4908L5.39167 9.19167C5.33026 9.13445 5.28101 9.06545 5.24685 8.98879C5.21269 8.91212 5.19432 8.82936 5.19284 8.74544C5.19136 8.66152 5.2068 8.57816 5.23823 8.50034C5.26967 8.42252 5.31645 8.35182 5.3758 8.29247C5.43515 8.23312 5.50585 8.18634 5.58367 8.1549C5.66149 8.12347 5.74485 8.10803 5.82877 8.10951C5.91269 8.11099 5.99545 8.12936 6.07212 8.16352C6.14878 8.19768 6.21778 8.24693 6.275 8.30834L8.20667 10.2392C8.67947 9.40996 9.36202 8.71965 10.1858 8.23751C9.86613 7.63709 9.38912 7.13494 8.80591 6.78484C8.22269 6.43473 7.55523 6.24985 6.875 6.25001H3.1325L3.12833 6.25334C3.12732 6.25461 3.12648 6.25601 3.12583 6.2575L3.125 6.26167V10C3.12493 10.5501 3.24588 11.0935 3.47929 11.5916C3.71269 12.0897 4.05283 12.5304 4.47559 12.8824C4.89834 13.2344 5.39336 13.489 5.92554 13.6283C6.45772 13.7676 7.01402 13.7881 7.555 13.6883C7.51846 13.4327 7.50008 13.1749 7.5 12.9167Z" fill="white"/>
</g>
</svg>
